<svg xmlns="http://www.w3.org/2000/svg" viewBox="0 0 1200 580" font-family="'Segoe UI', Inter, system-ui, sans-serif">
  <defs>
    <marker id="arr1" markerWidth="8" markerHeight="6" refX="6" refY="3" orient="auto">
      <path d="M0,0 L0,6 L8,3 z" fill="#FF3621"/>
    </marker>
    <marker id="arr2" markerWidth="8" markerHeight="6" refX="6" refY="3" orient="auto">
      <path d="M0,0 L0,6 L8,3 z" fill="#5A6E7F"/>
    </marker>
    <marker id="arr3" markerWidth="8" markerHeight="6" refX="6" refY="3" orient="auto">
      <path d="M0,0 L0,6 L8,3 z" fill="#009688"/>
    </marker>
  </defs>

  <!-- Background -->
  <rect width="1200" height="580" fill="#F0F4F8"/>

  <!-- Title -->
  <text x="600" y="32" text-anchor="middle" font-size="17" font-weight="700" fill="#1B3139">Arquitetura — Motz Demo · Logística de Caminhões</text>

  <!-- ==================== DRIVER ==================== -->
  <g transform="translate(15,50)">
    <rect width="125" height="185" rx="10" fill="#FFFFFF" stroke="#D1D9E0" stroke-width="1.5"/>
    <rect x="27" y="14" width="70" height="118" rx="8" fill="#1B3139"/>
    <rect x="32" y="20" width="60" height="98" rx="3" fill="#E8F4FD"/>
    <!-- signal bars -->
    <rect x="38" y="46" width="6" height="16" rx="1" fill="#FF3621"/>
    <rect x="46" y="39" width="6" height="23" rx="1" fill="#FF3621"/>
    <rect x="54" y="33" width="6" height="29" rx="1" fill="#FF3621" opacity="0.6"/>
    <!-- chat bubble -->
    <rect x="35" y="80" width="50" height="20" rx="4" fill="#25D366"/>
    <text x="37" y="91" font-size="7.5" fill="#FFFFFF">Tenho uma carga!</text>
    <!-- camera + home -->
    <circle cx="62" cy="18" r="2.5" fill="#3A4A59"/>
    <circle cx="62" cy="141" r="5" fill="#3A4A59"/>
    <text x="62" y="173" text-anchor="middle" font-size="11" font-weight="600" fill="#1B3139">Motorista</text>
    <text x="62" y="186" text-anchor="middle" font-size="9" fill="#5A6E7F">texto / áudio</text>
  </g>

  <!-- Arrow: Driver → Frontend -->
  <path d="M 142 143 L 162 143" stroke="#FF3621" stroke-width="2" fill="none" marker-end="url(#arr1)"/>

  <!-- ==================== REACT FRONTEND ==================== -->
  <g transform="translate(162,50)">
    <rect width="210" height="375" rx="12" fill="#FFFFFF" stroke="#D1D9E0" stroke-width="1.5"/>
    <!-- Header -->
    <rect width="210" height="36" rx="12" fill="#1B3139"/>
    <rect y="18" width="210" height="18" fill="#1B3139"/>
    <!-- React atom icon -->
    <ellipse cx="20" cy="18" rx="9" ry="4" fill="none" stroke="#61DAFB" stroke-width="1.2" transform="rotate(0,20,18)"/>
    <ellipse cx="20" cy="18" rx="9" ry="4" fill="none" stroke="#61DAFB" stroke-width="1.2" transform="rotate(60,20,18)"/>
    <ellipse cx="20" cy="18" rx="9" ry="4" fill="none" stroke="#61DAFB" stroke-width="1.2" transform="rotate(-60,20,18)"/>
    <circle cx="20" cy="18" r="2.5" fill="#61DAFB"/>
    <text x="35" y="14" font-size="11" font-weight="700" fill="#FFFFFF">React Frontend</text>
    <text x="35" y="27" font-size="9" fill="#A0B4C0">Vite · React 18 · Tailwind CSS</text>

    <!-- WhatsApp Simulator -->
    <rect x="10" y="48" width="190" height="90" rx="7" fill="#F0FFF5" stroke="#25D366" stroke-width="1"/>
    <circle cx="27" cy="64" r="10" fill="#25D366"/>
    <text x="27" y="68" text-anchor="middle" font-size="11" fill="#FFFFFF">💬</text>
    <text x="42" y="61" font-size="10" font-weight="700" fill="#1B3139">WhatsApp Simulator</text>
    <text x="18" y="79" font-size="9" fill="#5A6E7F">• Seleção de motorista</text>
    <text x="18" y="92" font-size="9" fill="#5A6E7F">• Envio de texto / áudio</text>
    <text x="18" y="105" font-size="9" fill="#5A6E7F">• Histórico + player de áudio</text>
    <text x="18" y="118" font-size="9" fill="#5A6E7F">• Respostas do agente IA</text>

    <!-- Live Dashboard -->
    <rect x="10" y="148" width="190" height="80" rx="7" fill="#E8F4FD" stroke="#0066CC" stroke-width="1"/>
    <circle cx="27" cy="164" r="10" fill="#0066CC"/>
    <text x="27" y="168" text-anchor="middle" font-size="10" fill="#FFFFFF">📊</text>
    <text x="42" y="162" font-size="10" font-weight="700" fill="#1B3139">Live Dashboard</text>
    <text x="18" y="179" font-size="9" fill="#5A6E7F">• KPIs em tempo real</text>
    <text x="18" y="192" font-size="9" fill="#5A6E7F">• Gráficos (Recharts)</text>
    <text x="18" y="205" font-size="9" fill="#5A6E7F">• Polling a cada 3 segundos</text>

    <!-- AI/BI embed -->
    <rect x="10" y="238" width="190" height="72" rx="7" fill="#FFF5F0" stroke="#FF3621" stroke-width="1"/>
    <!-- Databricks bricks micro-icon -->
    <polygon points="19,251 27,247 35,251 27,255" fill="#FF3621"/>
    <polygon points="19,256 27,252 35,256 27,260" fill="#FF3621" opacity="0.75"/>
    <text x="40" y="251" font-size="10" font-weight="700" fill="#1B3139">AI/BI Dashboard</text>
    <text x="40" y="262" font-size="9" fill="#5A6E7F">Embed iFrame</text>
    <text x="18" y="279" font-size="9" fill="#5A6E7F">• Dashboard publicado Databricks</text>
    <text x="18" y="292" font-size="9" fill="#5A6E7F">• Filtros interativos nativos</text>

    <!-- Port label -->
    <text x="105" y="362" text-anchor="middle" font-size="9" fill="#8899A6" font-style="italic">localhost:5173</text>
  </g>

  <!-- Arrow: Frontend → Backend -->
  <path d="M 374 240 L 393 240" stroke="#5A6E7F" stroke-width="2" fill="none" marker-end="url(#arr2)"/>
  <text x="383" y="234" text-anchor="middle" font-size="8" fill="#5A6E7F">REST</text>

  <!-- ==================== FASTAPI BACKEND ==================== -->
  <g transform="translate(393,50)">
    <rect width="190" height="375" rx="12" fill="#FFFFFF" stroke="#D1D9E0" stroke-width="1.5"/>
    <!-- Header -->
    <rect width="190" height="36" rx="12" fill="#009688"/>
    <rect y="18" width="190" height="18" fill="#009688"/>
    <!-- FastAPI lightning icon simplified -->
    <polygon points="16,8 12,20 17,20 13,29 23,15 18,15 22,8" fill="#E0FFF9"/>
    <text x="30" y="15" font-size="11" font-weight="700" fill="#FFFFFF">FastAPI Backend</text>
    <text x="30" y="27" font-size="9" fill="#E0F7F4">Python 3 · localhost:8000</text>

    <!-- Routes label -->
    <text x="12" y="55" font-size="9" font-weight="700" fill="#1B3139">Rotas da API</text>

    <rect x="10" y="60" width="170" height="18" rx="3" fill="#F5FBF5"/>
    <text x="14" y="73" font-size="9" fill="#009688" font-weight="700">POST</text>
    <text x="45" y="73" font-size="9" fill="#1B3139">/api/message</text>

    <rect x="10" y="82" width="170" height="18" rx="3" fill="#F5FBF5"/>
    <text x="14" y="95" font-size="9" fill="#009688" font-weight="700">POST</text>
    <text x="45" y="95" font-size="9" fill="#1B3139">/api/audio/{driver_id}</text>

    <rect x="10" y="104" width="170" height="18" rx="3" fill="#F5FBF5"/>
    <text x="14" y="117" font-size="9" fill="#5A6E7F" font-weight="700">GET</text>
    <text x="45" y="117" font-size="9" fill="#1B3139">/api/metrics</text>

    <rect x="10" y="126" width="170" height="18" rx="3" fill="#F5FBF5"/>
    <text x="14" y="139" font-size="9" fill="#5A6E7F" font-weight="700">GET</text>
    <text x="45" y="139" font-size="9" fill="#1B3139">/api/drivers</text>

    <rect x="10" y="148" width="170" height="18" rx="3" fill="#F5FBF5"/>
    <text x="14" y="161" font-size="9" fill="#5A6E7F" font-weight="700">GET</text>
    <text x="45" y="161" font-size="9" fill="#1B3139">/api/state/{driver_id}</text>

    <rect x="10" y="170" width="170" height="18" rx="3" fill="#F5FBF5"/>
    <text x="14" y="183" font-size="9" fill="#CC0000" font-weight="700">DEL</text>
    <text x="45" y="183" font-size="9" fill="#1B3139">/api/state</text>

    <!-- Core modules -->
    <text x="12" y="212" font-size="9" font-weight="700" fill="#1B3139">Módulos Core</text>

    <rect x="10" y="218" width="170" height="32" rx="4" fill="#E8F4FD"/>
    <text x="16" y="232" font-size="9" font-weight="600" fill="#0066CC">agent.py</text>
    <text x="16" y="244" font-size="9" fill="#5A6E7F">Orquestra LLM + ferramentas</text>

    <rect x="10" y="254" width="170" height="32" rx="4" fill="#E8F4FD"/>
    <text x="16" y="268" font-size="9" font-weight="600" fill="#0066CC">transcriber.py</text>
    <text x="16" y="280" font-size="9" fill="#5A6E7F">Speech-to-Text (faster-whisper)</text>

    <rect x="10" y="290" width="170" height="32" rx="4" fill="#E8F4FD"/>
    <text x="16" y="304" font-size="9" font-weight="600" fill="#0066CC">state.py</text>
    <text x="16" y="316" font-size="9" fill="#5A6E7F">Histórico de conversas</text>

    <rect x="10" y="326" width="170" height="32" rx="4" fill="#E8F4FD"/>
    <text x="16" y="340" font-size="9" font-weight="600" fill="#0066CC">db.py</text>
    <text x="16" y="352" font-size="9" fill="#5A6E7F">Executor SQL → Databricks</text>

    <text x="95" y="370" text-anchor="middle" font-size="9" fill="#8899A6" font-style="italic">Databricks SDK</text>
  </g>

  <!-- Arrow Backend → Databricks (LLM / STT) -->
  <path d="M 585 155 L 603 155" stroke="#FF3621" stroke-width="2" fill="none" marker-end="url(#arr1)"/>
  <!-- Arrow Backend → Databricks (SQL) -->
  <path d="M 585 320 L 603 320" stroke="#FF3621" stroke-width="2" fill="none" marker-end="url(#arr1)"/>

  <!-- ==================== DATABRICKS WORKSPACE ==================== -->
  <rect x="603" y="45" width="583" height="440" rx="14" fill="#FAFAFA" stroke="#FF3621" stroke-width="2.5"/>

  <!-- Databricks header bar -->
  <rect x="603" y="45" width="583" height="44" rx="14" fill="#1B3139"/>
  <rect x="603" y="67" width="583" height="22" fill="#1B3139"/>

  <!-- Official Databricks bricks logo (stacked diamonds) -->
  <polygon points="622,52 633,58.5 622,65 611,58.5" fill="#FF3621"/>
  <polygon points="635,52 646,58.5 635,65 624,58.5" fill="#FF3621" opacity="0.85"/>
  <polygon points="628.5,64 639.5,70.5 628.5,77 617.5,70.5" fill="#FF3621" opacity="0.7"/>

  <text x="652" y="65" font-size="13" font-weight="700" fill="#FFFFFF">Databricks Workspace</text>
  <text x="652" y="79" font-size="9" fill="#A0B4C0">fevm-leticia-santos-classic-stable.cloud.databricks.com  ·  Org: 7474658265676932</text>

  <!-- Model Serving  -->
  <rect x="614" y="100" width="268" height="168" rx="10" fill="#FFF5F3" stroke="#FF3621" stroke-width="1.5"/>
  <rect x="614" y="100" width="268" height="28" rx="10" fill="#FF3621" fill-opacity="0.14"/>
  <rect x="614" y="114" width="268" height="14" fill="#FF3621" fill-opacity="0.14"/>
  <!-- lightning bolt icon -->
  <polygon points="626,106 622,118 627,118 623,128 633,113 628,113 632,106" fill="#FF3621"/>
  <text x="638" y="112" font-size="10" font-weight="700" fill="#CC2200">Model Serving</text>
  <text x="638" y="123" font-size="9" fill="#CC2200">Endpoints customizados de IA</text>

  <!-- Claude endpoint card -->
  <rect x="622" y="136" width="252" height="56" rx="6" fill="#FFFFFF" stroke="#F0D0C0" stroke-width="1"/>
  <circle cx="642" cy="164" r="14" fill="#CC785C"/>
  <text x="642" y="169" text-anchor="middle" font-size="13" fill="#FFFFFF" font-weight="800">A</text>
  <text x="662" y="155" font-size="10" font-weight="700" fill="#1B3139">Claude Sonnet 4.6</text>
  <text x="662" y="167" font-size="9" fill="#666">databricks-claude-sonnet-4-6</text>
  <rect x="662" y="174" width="40" height="11" rx="2" fill="#E8F9E8"/>
  <text x="664" y="183" font-size="8" fill="#009688">✓ READY</text>
  <text x="707" y="183" font-size="8" fill="#888">· LLM Agent</text>

  <!-- faster-whisper endpoint card -->
  <rect x="622" y="198" width="252" height="56" rx="6" fill="#FFFFFF" stroke="#F0D0C0" stroke-width="1"/>
  <circle cx="642" cy="226" r="14" fill="#7B2D8B"/>
  <text x="642" y="231" text-anchor="middle" font-size="13" fill="#FFFFFF">🎙</text>
  <text x="662" y="217" font-size="10" font-weight="700" fill="#1B3139">faster-whisper large-v3</text>
  <text x="662" y="229" font-size="9" fill="#666">faster-whisper-large-v3</text>
  <text x="662" y="240" font-size="8" fill="#888">MLflow code-based · CPU / int8</text>
  <rect x="662" y="246" width="40" height="11" rx="2" fill="#E8F9E8"/>
  <text x="664" y="255" font-size="8" fill="#009688">✓ READY</text>
  <text x="707" y="255" font-size="8" fill="#888">· STT</text>

  <!-- Unity Catalog / Delta Lake  -->
  <rect x="614" y="280" width="268" height="192" rx="10" fill="#EEF4FF" stroke="#0066CC" stroke-width="1.5"/>
  <rect x="614" y="280" width="268" height="28" rx="10" fill="#0066CC" fill-opacity="0.14"/>
  <rect x="614" y="294" width="268" height="14" fill="#0066CC" fill-opacity="0.14"/>
  <!-- UC icon: circle with "UC" -->
  <circle cx="628" cy="294" r="10" fill="#0066CC"/>
  <text x="628" y="298" text-anchor="middle" font-size="8" fill="#FFFFFF" font-weight="700">UC</text>
  <text x="643" y="291" font-size="10" font-weight="700" fill="#003D8F">Unity Catalog</text>
  <text x="643" y="303" font-size="9" fill="#003D8F">leticia_santos_...catalog.motz_demo</text>

  <!-- Delta Lake triangle icon -->
  <polygon points="622,316 633,302 644,316" fill="#0066CC" opacity="0.85"/>
  <text x="650" y="314" font-size="9" font-weight="600" fill="#1B3139">Delta Lake Tables</text>

  <!-- Table list -->
  <rect x="622" y="320" width="252" height="144" rx="5" fill="#FFFFFF" stroke="#DDEEFF" stroke-width="1"/>
  <text x="633" y="337" font-size="9" fill="#1B3139">📋  motoristas</text>
  <text x="700" y="337" font-size="8" fill="#888">CNH · veículo · localização</text>
  <line x1="630" y1="341" x2="866" y2="341" stroke="#EEF0F4" stroke-width="0.5"/>
  <text x="633" y="356" font-size="9" fill="#1B3139">📋  transportadoras</text>
  <text x="700" y="356" font-size="8" fill="#888">CNPJ · frota</text>
  <line x1="630" y1="360" x2="866" y2="360" stroke="#EEF0F4" stroke-width="0.5"/>
  <text x="633" y="375" font-size="9" fill="#1B3139">📋  embarcadores</text>
  <text x="700" y="375" font-size="8" fill="#888">contratantes de frete</text>
  <line x1="630" y1="379" x2="866" y2="379" stroke="#EEF0F4" stroke-width="0.5"/>
  <text x="633" y="394" font-size="9" fill="#1B3139">📋  cargas</text>
  <text x="700" y="394" font-size="8" fill="#888">realizadas · disponíveis · futuras</text>
  <line x1="630" y1="398" x2="866" y2="398" stroke="#EEF0F4" stroke-width="0.5"/>
  <text x="633" y="413" font-size="9" fill="#1B3139">💬  conversas</text>
  <text x="700" y="413" font-size="8" fill="#888">histórico do agente IA</text>
  <line x1="630" y1="417" x2="866" y2="417" stroke="#EEF0F4" stroke-width="0.5"/>
  <text x="633" y="432" font-size="9" fill="#1B3139">🧪  MLflow Model Registry</text>
  <text x="700" y="432" font-size="8" fill="#888">faster-whisper v2</text>
  <text x="633" y="455" font-size="8" fill="#8899A6" font-style="italic">~50 000 registros gerados com Faker</text>

  <!-- SQL Warehouse  -->
  <rect x="894" y="100" width="285" height="108" rx="10" fill="#F0FFF8" stroke="#009688" stroke-width="1.5"/>
  <rect x="894" y="100" width="285" height="28" rx="10" fill="#009688" fill-opacity="0.16"/>
  <rect x="894" y="114" width="285" height="14" fill="#009688" fill-opacity="0.16"/>
  <!-- DB cylinder icon -->
  <ellipse cx="910" cy="109" rx="10" ry="5" fill="#009688"/>
  <rect x="900" y="109" width="20" height="11" fill="#007A6A"/>
  <ellipse cx="910" cy="120" rx="10" ry="5" fill="#007A6A"/>
  <text x="926" y="108" font-size="10" font-weight="700" fill="#005A4A">SQL Warehouse</text>
  <text x="926" y="120" font-size="9" fill="#005A4A">DBSQL Serverless</text>
  <text x="904" y="145" font-size="9" fill="#5A6E7F">• Queries de métricas em tempo real</text>
  <text x="904" y="159" font-size="9" fill="#5A6E7F">• Leitura de motoristas e cargas</text>
  <text x="904" y="173" font-size="9" fill="#5A6E7F">• Escrita e leitura de conversas</text>
  <text x="904" y="187" font-size="9" fill="#5A6E7F">• Schema: motz_demo</text>

  <!-- AI/BI Dashboard  -->
  <rect x="894" y="218" width="285" height="112" rx="10" fill="#FFF8F0" stroke="#FF8C00" stroke-width="1.5"/>
  <rect x="894" y="218" width="285" height="28" rx="10" fill="#FF8C00" fill-opacity="0.16"/>
  <rect x="894" y="232" width="285" height="14" fill="#FF8C00" fill-opacity="0.16"/>
  <!-- Databricks bricks icon (AI/BI) -->
  <polygon points="906,224 915,229 906,234 897,229" fill="#FF8C00"/>
  <polygon points="917,224 926,229 917,234 908,229" fill="#FF8C00" opacity="0.8"/>
  <polygon points="911.5,234 920.5,239 911.5,244 902.5,239" fill="#FF8C00" opacity="0.65"/>
  <text x="932" y="227" font-size="10" font-weight="700" fill="#B35A00">AI/BI Dashboard</text>
  <text x="932" y="239" font-size="9" fill="#B35A00">Publicado + Embedded (iFrame)</text>
  <text x="904" y="262" font-size="9" fill="#5A6E7F">• KPIs de negócio (frete, peso, qtd)</text>
  <text x="904" y="276" font-size="9" fill="#5A6E7F">• Cargas por tipo, UF, composição</text>
  <text x="904" y="290" font-size="9" fill="#5A6E7F">• Ticket médio · Tendência mensal</text>
  <text x="904" y="304" font-size="9" fill="#5A6E7F">• Data Quality · embed_credentials</text>

  <!-- Notebooks / MLflow  -->
  <rect x="894" y="340" width="285" height="130" rx="10" fill="#F8F0FF" stroke="#8E44AD" stroke-width="1.5"/>
  <rect x="894" y="340" width="285" height="28" rx="10" fill="#8E44AD" fill-opacity="0.14"/>
  <rect x="894" y="354" width="285" height="14" fill="#8E44AD" fill-opacity="0.14"/>
  <!-- Notebook icon -->
  <rect x="901" y="345" width="14" height="18" rx="1" fill="#8E44AD"/>
  <rect x="904" y="350" width="8" height="1.2" fill="#FFFFFF"/>
  <rect x="904" y="353" width="8" height="1.2" fill="#FFFFFF"/>
  <rect x="904" y="356" width="6" height="1.2" fill="#FFFFFF"/>
  <!-- MLflow logo: stylized M -->
  <text x="919" y="350" font-size="10" font-weight="700" fill="#5A0080">Notebooks · MLflow · Jobs</text>
  <text x="919" y="362" font-size="9" fill="#5A0080">Databricks Runtime 14.3 LTS+</text>
  <text x="904" y="384" font-size="9" fill="#5A6E7F">01 · Criar tabelas sintéticas (Faker)</text>
  <text x="904" y="398" font-size="9" fill="#5A6E7F">02 · Incluir dados de baixa qualidade</text>
  <text x="904" y="412" font-size="9" fill="#5A6E7F">04 · Dashboard de negócios Databricks</text>
  <text x="904" y="426" font-size="9" fill="#5A6E7F">05 · Gerar dados sintéticos 5×</text>
  <text x="904" y="440" font-size="9" fill="#5A6E7F">MLflow · Registro faster-whisper v2</text>
  <text x="904" y="454" font-size="9" fill="#8899A6" font-style="italic">Cluster: 14.3 LTS · GPU / CPU</text>

  <!-- ==================== LEGEND ==================== -->
  <rect x="15" y="503" width="1170" height="63" rx="8" fill="#FFFFFF" stroke="#D1D9E0" stroke-width="1"/>
  <text x="30" y="522" font-size="10" font-weight="700" fill="#1B3139">Legenda:</text>
  <path d="M 88 519 L 120 519" stroke="#FF3621" stroke-width="2" fill="none" marker-end="url(#arr1)"/>
  <text x="125" y="523" font-size="9" fill="#5A6E7F">Chamada de API / inferência IA</text>
  <path d="M 88 536 L 120 536" stroke="#5A6E7F" stroke-width="2" fill="none" stroke-dasharray="4,2"/>
  <text x="125" y="540" font-size="9" fill="#5A6E7F">REST / SDK</text>

  <rect x="270" y="515" width="10" height="10" rx="2" fill="#FF3621" opacity="0.2" stroke="#FF3621" stroke-width="1"/>
  <text x="284" y="524" font-size="9" fill="#5A6E7F">Model Serving</text>
  <rect x="380" y="515" width="10" height="10" rx="2" fill="#0066CC" opacity="0.2" stroke="#0066CC" stroke-width="1"/>
  <text x="394" y="524" font-size="9" fill="#5A6E7F">Unity Catalog / Delta Lake</text>
  <rect x="530" y="515" width="10" height="10" rx="2" fill="#009688" opacity="0.2" stroke="#009688" stroke-width="1"/>
  <text x="544" y="524" font-size="9" fill="#5A6E7F">SQL Warehouse</text>
  <rect x="645" y="515" width="10" height="10" rx="2" fill="#FF8C00" opacity="0.2" stroke="#FF8C00" stroke-width="1"/>
  <text x="659" y="524" font-size="9" fill="#5A6E7F">AI/BI Dashboard</text>
  <rect x="760" y="515" width="10" height="10" rx="2" fill="#8E44AD" opacity="0.2" stroke="#8E44AD" stroke-width="1"/>
  <text x="774" y="524" font-size="9" fill="#5A6E7F">Notebooks / MLflow</text>

  <text x="30" y="554" font-size="9" fill="#8899A6">
    Stack: React 18 + Vite + Tailwind CSS | FastAPI + Python 3 | Databricks — Claude Sonnet 4.6 · faster-whisper large-v3 · Delta Lake · DBSQL · AI/BI · Unity Catalog · MLflow
  </text>
</svg>
