<svg xmlns="http://www.w3.org/2000/svg" viewBox="0 0 1300 620" font-family="'Segoe UI', Inter, system-ui, sans-serif">
  <defs>
    <marker id="arr1" markerWidth="8" markerHeight="6" refX="6" refY="3" orient="auto">
      <path d="M0,0 L0,6 L8,3 z" fill="#FF3621"/>
    </marker>
    <marker id="arr2" markerWidth="8" markerHeight="6" refX="6" refY="3" orient="auto">
      <path d="M0,0 L0,6 L8,3 z" fill="#5A6E7F"/>
    </marker>
  </defs>

  <!-- Background -->
  <rect width="1300" height="620" fill="#F0F4F8"/>

  <!-- Title -->
  <text x="650" y="32" text-anchor="middle" font-size="17" font-weight="700" fill="#1B3139">Arquitetura — Motz Demo · Logística de Caminhões</text>

  <!-- DRIVER -->
  <g transform="translate(15,55)">
    <rect width="125" height="185" rx="10" fill="#FFFFFF" stroke="#D1D9E0" stroke-width="1.5"/>
    <rect x="27" y="14" width="70" height="118" rx="8" fill="#1B3139"/>
    <rect x="32" y="20" width="60" height="98" rx="3" fill="#E8F4FD"/>
    <rect x="38" y="46" width="6" height="16" rx="1" fill="#FF3621"/>
    <rect x="46" y="39" width="6" height="23" rx="1" fill="#FF3621"/>
    <rect x="54" y="33" width="6" height="29" rx="1" fill="#FF3621" opacity="0.6"/>
    <rect x="35" y="80" width="50" height="20" rx="4" fill="#25D366"/>
    <text x="37" y="91" font-size="7.5" fill="#FFFFFF">Tenho uma carga!</text>
    <circle cx="62" cy="18" r="2.5" fill="#3A4A59"/>
    <circle cx="62" cy="141" r="5" fill="#3A4A59"/>
    <text x="62" y="173" text-anchor="middle" font-size="11" font-weight="600" fill="#1B3139">Motorista</text>
    <text x="62" y="186" text-anchor="middle" font-size="9" fill="#5A6E7F">texto / áudio</text>
  </g>

  <!-- Arrow Driver to Frontend -->
  <path d="M 142 148 L 162 148" stroke="#FF3621" stroke-width="2" fill="none" marker-end="url(#arr1)"/>

  <!-- REACT FRONTEND -->
  <g transform="translate(162,55)">
    <rect width="210" height="390" rx="12" fill="#FFFFFF" stroke="#D1D9E0" stroke-width="1.5"/>
    <rect width="210" height="36" rx="12" fill="#1B3139"/>
    <rect y="18" width="210" height="18" fill="#1B3139"/>
    <ellipse cx="20" cy="18" rx="9" ry="4" fill="none" stroke="#61DAFB" stroke-width="1.2" transform="rotate(0,20,18)"/>
    <ellipse cx="20" cy="18" rx="9" ry="4" fill="none" stroke="#61DAFB" stroke-width="1.2" transform="rotate(60,20,18)"/>
    <ellipse cx="20" cy="18" rx="9" ry="4" fill="none" stroke="#61DAFB" stroke-width="1.2" transform="rotate(-60,20,18)"/>
    <circle cx="20" cy="18" r="2.5" fill="#61DAFB"/>
    <text x="35" y="14" font-size="11" font-weight="700" fill="#FFFFFF">React Frontend</text>
    <text x="35" y="27" font-size="9" fill="#A0B4C0">Vite · React 18 · Tailwind CSS</text>

    <rect x="10" y="48" width="190" height="90" rx="7" fill="#F0FFF5" stroke="#25D366" stroke-width="1"/>
    <circle cx="27" cy="64" r="10" fill="#25D366"/>
    <text x="27" y="68" text-anchor="middle" font-size="11" fill="#FFFFFF">💬</text>
    <text x="42" y="62" font-size="10" font-weight="700" fill="#1B3139">WhatsApp Simulator</text>
    <text x="18" y="79" font-size="9" fill="#5A6E7F">• Seleção de motorista</text>
    <text x="18" y="92" font-size="9" fill="#5A6E7F">• Envio de texto / áudio</text>
    <text x="18" y="105" font-size="9" fill="#5A6E7F">• Histórico + player de áudio</text>
    <text x="18" y="118" font-size="9" fill="#5A6E7F">• Respostas do agente IA</text>

    <rect x="10" y="150" width="190" height="78" rx="7" fill="#E8F4FD" stroke="#0066CC" stroke-width="1"/>
    <circle cx="27" cy="166" r="10" fill="#0066CC"/>
    <text x="27" y="170" text-anchor="middle" font-size="10" fill="#FFFFFF">📊</text>
    <text x="42" y="163" font-size="10" font-weight="700" fill="#1B3139">Live Dashboard</text>
    <text x="18" y="180" font-size="9" fill="#5A6E7F">• KPIs em tempo real</text>
    <text x="18" y="193" font-size="9" fill="#5A6E7F">• Gráficos (Recharts)</text>
    <text x="18" y="206" font-size="9" fill="#5A6E7F">• Polling a cada 3 segundos</text>

    <rect x="10" y="240" width="190" height="70" rx="7" fill="#FFF5F0" stroke="#FF3621" stroke-width="1"/>
    <polygon points="19,253 27,249 35,253 27,257" fill="#FF3621"/>
    <polygon points="19,258 27,254 35,258 27,262" fill="#FF3621" opacity="0.75"/>
    <text x="40" y="254" font-size="10" font-weight="700" fill="#1B3139">AI/BI Dashboard</text>
    <text x="40" y="265" font-size="9" fill="#5A6E7F">Embed iFrame</text>
    <text x="18" y="281" font-size="9" fill="#5A6E7F">• Dashboard publicado Databricks</text>
    <text x="18" y="295" font-size="9" fill="#5A6E7F">• Filtros interativos nativos</text>

    <text x="105" y="380" text-anchor="middle" font-size="9" fill="#8899A6" font-style="italic">Databricks Apps (produção)</text>
  </g>

  <!-- Arrow Frontend to Backend -->
  <path d="M 374 248 L 393 248" stroke="#5A6E7F" stroke-width="2" fill="none" marker-end="url(#arr2)"/>
  <text x="383" y="242" text-anchor="middle" font-size="8" fill="#5A6E7F">REST</text>

  <!-- FASTAPI BACKEND -->
  <g transform="translate(393,55)">
    <rect width="190" height="390" rx="12" fill="#FFFFFF" stroke="#D1D9E0" stroke-width="1.5"/>
    <rect width="190" height="36" rx="12" fill="#009688"/>
    <rect y="18" width="190" height="18" fill="#009688"/>
    <polygon points="16,8 12,20 17,20 13,29 23,15 18,15 22,8" fill="#E0FFF9"/>
    <text x="30" y="15" font-size="11" font-weight="700" fill="#FFFFFF">FastAPI Backend</text>
    <text x="30" y="27" font-size="9" fill="#E0F7F4">Python 3 · uvicorn</text>

    <text x="12" y="55" font-size="9" font-weight="700" fill="#1B3139">Rotas da API</text>

    <rect x="10" y="60" width="170" height="18" rx="3" fill="#F5FBF5"/>
    <text x="14" y="73" font-size="9" fill="#009688" font-weight="700">POST</text>
    <text x="45" y="73" font-size="9" fill="#1B3139">/api/message</text>

    <rect x="10" y="82" width="170" height="18" rx="3" fill="#F5FBF5"/>
    <text x="14" y="95" font-size="9" fill="#009688" font-weight="700">POST</text>
    <text x="45" y="95" font-size="9" fill="#1B3139">/api/audio/{driver_id}</text>

    <rect x="10" y="104" width="170" height="18" rx="3" fill="#F5FBF5"/>
    <text x="14" y="117" font-size="9" fill="#5A6E7F" font-weight="700">GET</text>
    <text x="45" y="117" font-size="9" fill="#1B3139">/api/metrics</text>

    <rect x="10" y="126" width="170" height="18" rx="3" fill="#F5FBF5"/>
    <text x="14" y="139" font-size="9" fill="#5A6E7F" font-weight="700">GET</text>
    <text x="45" y="139" font-size="9" fill="#1B3139">/api/drivers</text>

    <text x="12" y="175" font-size="9" font-weight="700" fill="#1B3139">Módulos Core</text>

    <rect x="10" y="181" width="170" height="32" rx="4" fill="#E8F4FD"/>
    <text x="16" y="195" font-size="9" font-weight="600" fill="#0066CC">agent.py</text>
    <text x="16" y="207" font-size="9" fill="#5A6E7F">Orquestra LLM + ferramentas</text>

    <rect x="10" y="217" width="170" height="32" rx="4" fill="#E8F4FD"/>
    <text x="16" y="231" font-size="9" font-weight="600" fill="#0066CC">transcriber.py</text>
    <text x="16" y="243" font-size="9" fill="#5A6E7F">Speech-to-Text (Whisper)</text>

    <rect x="10" y="253" width="170" height="32" rx="4" fill="#E8F4FD"/>
    <text x="16" y="267" font-size="9" font-weight="600" fill="#0066CC">state.py</text>
    <text x="16" y="279" font-size="9" fill="#5A6E7F">Histórico de conversas</text>

    <rect x="10" y="289" width="170" height="32" rx="4" fill="#E8F4FD"/>
    <text x="16" y="303" font-size="9" font-weight="600" fill="#0066CC">db.py</text>
    <text x="16" y="315" font-size="9" fill="#5A6E7F">Lakebase (PostgreSQL) via SDK</text>

    <text x="95" y="380" text-anchor="middle" font-size="9" fill="#8899A6" font-style="italic">Databricks SDK</text>
  </g>

  <!-- Arrow Backend to Databricks -->
  <path d="M 585 160 L 608 160" stroke="#FF3621" stroke-width="2" fill="none" marker-end="url(#arr1)"/>
  <path d="M 585 330 L 608 330" stroke="#FF3621" stroke-width="2" fill="none" marker-end="url(#arr1)"/>

  <!-- DATABRICKS WORKSPACE -->
  <rect x="608" y="50" width="675" height="490" rx="14" fill="#FAFAFA" stroke="#FF3621" stroke-width="2.5"/>
  <rect x="608" y="50" width="675" height="44" rx="14" fill="#1B3139"/>
  <rect x="608" y="72" width="675" height="22" fill="#1B3139"/>

  <!-- Databricks logo -->
  <polygon points="627,57 638,63.5 627,70 616,63.5" fill="#FF3621"/>
  <polygon points="640,57 651,63.5 640,70 629,63.5" fill="#FF3621" opacity="0.85"/>
  <polygon points="633.5,69 644.5,75.5 633.5,82 622.5,75.5" fill="#FF3621" opacity="0.7"/>
  <text x="658" y="70" font-size="13" font-weight="700" fill="#FFFFFF">Databricks Workspace</text>
  <text x="658" y="84" font-size="9" fill="#A0B4C0">fevm-leticia-santos-classic-stable.cloud.databricks.com</text>

  <!-- Databricks Apps -->
  <rect x="619" y="105" width="200" height="110" rx="10" fill="#F0F8FF" stroke="#1B3139" stroke-width="1.5"/>
  <rect x="619" y="105" width="200" height="28" rx="10" fill="#1B3139" fill-opacity="0.85"/>
  <rect x="619" y="119" width="200" height="14" fill="#1B3139" fill-opacity="0.85"/>
  <polygon points="630,111 639,116 630,121 621,116" fill="#FF3621"/>
  <polygon points="641,111 650,116 641,121 632,116" fill="#FF3621" opacity="0.8"/>
  <text x="655" y="116" font-size="10" font-weight="700" fill="#FFFFFF">Databricks Apps</text>
  <text x="655" y="128" font-size="9" fill="#A0B4C0">motz-demo (produção)</text>
  <text x="629" y="152" font-size="9" fill="#1B3139">• React + FastAPI hospedados</text>
  <text x="629" y="166" font-size="9" fill="#1B3139">• Auth integrado ao workspace</text>
  <text x="629" y="180" font-size="9" fill="#1B3139">• APP_PORT injetado via env var</text>
  <text x="629" y="196" font-size="9" fill="#8899A6" font-style="italic">motz-demo-7474...databricksapps.com</text>

  <!-- Model Serving -->
  <rect x="829" y="105" width="440" height="175" rx="10" fill="#FFF5F3" stroke="#FF3621" stroke-width="1.5"/>
  <rect x="829" y="105" width="440" height="28" rx="10" fill="#FF3621" fill-opacity="0.14"/>
  <rect x="829" y="119" width="440" height="14" fill="#FF3621" fill-opacity="0.14"/>
  <polygon points="841,111 830,123 835,123 831,133 841,118 836,118 840,111" fill="#FF3621"/>
  <text x="848" y="116" font-size="10" font-weight="700" fill="#CC2200">Model Serving</text>
  <text x="848" y="128" font-size="9" fill="#CC2200">Endpoints customizados de IA</text>

  <!-- Claude card -->
  <rect x="837" y="141" width="204" height="56" rx="6" fill="#FFFFFF" stroke="#F0D0C0" stroke-width="1"/>
  <circle cx="857" cy="169" r="14" fill="#CC785C"/>
  <text x="857" y="174" text-anchor="middle" font-size="13" fill="#FFFFFF" font-weight="800">A</text>
  <text x="877" y="160" font-size="10" font-weight="700" fill="#1B3139">Claude Sonnet 4.6</text>
  <text x="877" y="172" font-size="9" fill="#666">databricks-claude-sonnet-4-6</text>
  <rect x="877" y="179" width="40" height="11" rx="2" fill="#E8F9E8"/>
  <text x="879" y="188" font-size="8" fill="#009688">✓ READY</text>
  <text x="922" y="188" font-size="8" fill="#888">· LLM Agent</text>

  <!-- Whisper card -->
  <rect x="1051" y="141" width="210" height="56" rx="6" fill="#FFFFFF" stroke="#F0D0C0" stroke-width="1"/>
  <circle cx="1070" cy="169" r="14" fill="#7B2D8B"/>
  <text x="1070" y="174" text-anchor="middle" font-size="13" fill="#FFFFFF">🎙</text>
  <text x="1090" y="160" font-size="10" font-weight="700" fill="#1B3139">Whisper large-v3</text>
  <text x="1090" y="172" font-size="9" fill="#666">whisper-large-v3</text>
  <text x="1090" y="184" font-size="8" fill="#888">OpenAI Whisper · STT</text>
  <rect x="1090" y="190" width="40" height="11" rx="2" fill="#E8F9E8"/>
  <text x="1092" y="199" font-size="8" fill="#009688">✓ READY</text>

  <!-- MLflow -->
  <rect x="837" y="207" width="424" height="60" rx="6" fill="#F8F0FF" stroke="#8E44AD" stroke-width="1"/>
  <rect x="847" y="220" width="12" height="16" rx="1" fill="#8E44AD"/>
  <rect x="850" y="224" width="6" height="1.2" fill="#FFFFFF"/>
  <rect x="850" y="227" width="6" height="1.2" fill="#FFFFFF"/>
  <rect x="850" y="230" width="4" height="1.2" fill="#FFFFFF"/>
  <text x="865" y="222" font-size="9" font-weight="700" fill="#5A0080">MLflow Model Registry</text>
  <text x="865" y="234" font-size="9" fill="#5A6E7F">whisper-large-v3 registrado e versionado</text>
  <text x="865" y="246" font-size="9" fill="#5A6E7F">Notebooks de treinamento · Jobs de ingestão</text>
  <text x="865" y="258" font-size="8" fill="#8899A6" font-style="italic">leticia_santos_classic_stable_catalog.motz_demo</text>

  <!-- Unity Catalog / Delta Lake -->
  <rect x="619" y="225" width="200" height="305" rx="10" fill="#EEF4FF" stroke="#0066CC" stroke-width="1.5"/>
  <rect x="619" y="225" width="200" height="28" rx="10" fill="#0066CC" fill-opacity="0.14"/>
  <rect x="619" y="239" width="200" height="14" fill="#0066CC" fill-opacity="0.14"/>
  <circle cx="633" cy="239" r="10" fill="#0066CC"/>
  <text x="633" y="243" text-anchor="middle" font-size="8" fill="#FFFFFF" font-weight="700">UC</text>
  <text x="648" y="236" font-size="10" font-weight="700" fill="#003D8F">Unity Catalog</text>
  <text x="648" y="248" font-size="9" fill="#003D8F">motz_demo schema</text>
  <polygon points="627,261 638,247 649,261" fill="#0066CC" opacity="0.85"/>
  <text x="655" y="259" font-size="9" font-weight="600" fill="#1B3139">Delta Lake Tables</text>
  <rect x="627" y="265" width="184" height="175" rx="5" fill="#FFFFFF" stroke="#DDEEFF" stroke-width="1"/>
  <text x="634" y="282" font-size="9" fill="#1B3139">📋 motoristas</text>
  <line x1="631" y1="286" x2="803" y2="286" stroke="#EEF0F4" stroke-width="0.5"/>
  <text x="634" y="301" font-size="9" fill="#1B3139">📋 transportadoras</text>
  <line x1="631" y1="305" x2="803" y2="305" stroke="#EEF0F4" stroke-width="0.5"/>
  <text x="634" y="320" font-size="9" fill="#1B3139">📋 embarcadores</text>
  <line x1="631" y1="324" x2="803" y2="324" stroke="#EEF0F4" stroke-width="0.5"/>
  <text x="634" y="339" font-size="9" fill="#1B3139">📋 cargas</text>
  <line x1="631" y1="343" x2="803" y2="343" stroke="#EEF0F4" stroke-width="0.5"/>
  <text x="634" y="358" font-size="9" fill="#1B3139">💬 conversas</text>
  <line x1="631" y1="362" x2="803" y2="362" stroke="#EEF0F4" stroke-width="0.5"/>
  <text x="634" y="430" font-size="8" fill="#8899A6" font-style="italic">~50 000 registros · Faker</text>

  <!-- Lakebase -->
  <rect x="627" y="450" width="184" height="68" rx="5" fill="#E8F6FF" stroke="#0066CC" stroke-width="1"/>
  <text x="634" y="467" font-size="9" font-weight="700" fill="#003D8F">🐘 Lakebase (PostgreSQL)</text>
  <text x="634" y="481" font-size="9" fill="#5A6E7F">project: motz-demo</text>
  <text x="634" y="494" font-size="9" fill="#5A6E7F">branch: production</text>
  <text x="634" y="507" font-size="8" fill="#8899A6" font-style="italic">Autoscaling · psycopg2 via SDK</text>

  <!-- SQL Warehouse -->
  <rect x="829" y="285" width="210" height="115" rx="10" fill="#F0FFF8" stroke="#009688" stroke-width="1.5"/>
  <rect x="829" y="285" width="210" height="28" rx="10" fill="#009688" fill-opacity="0.16"/>
  <rect x="829" y="299" width="210" height="14" fill="#009688" fill-opacity="0.16"/>
  <ellipse cx="845" cy="294" rx="10" ry="5" fill="#009688"/>
  <rect x="835" y="294" width="20" height="11" fill="#007A6A"/>
  <ellipse cx="845" cy="305" rx="10" ry="5" fill="#007A6A"/>
  <text x="861" y="293" font-size="10" font-weight="700" fill="#005A4A">SQL Warehouse</text>
  <text x="861" y="305" font-size="9" fill="#005A4A">DBSQL Serverless</text>
  <text x="839" y="328" font-size="9" fill="#5A6E7F">• Métricas em tempo real</text>
  <text x="839" y="342" font-size="9" fill="#5A6E7F">• Leitura de motoristas/cargas</text>
  <text x="839" y="356" font-size="9" fill="#5A6E7F">• Escrita de conversas</text>
  <text x="839" y="370" font-size="9" fill="#5A6E7F">• Schema: motz_demo</text>

  <!-- AI/BI Dashboard -->
  <rect x="1051" y="285" width="218" height="115" rx="10" fill="#FFF8F0" stroke="#FF8C00" stroke-width="1.5"/>
  <rect x="1051" y="285" width="218" height="28" rx="10" fill="#FF8C00" fill-opacity="0.16"/>
  <rect x="1051" y="299" width="218" height="14" fill="#FF8C00" fill-opacity="0.16"/>
  <polygon points="1063,291 1072,296 1063,301 1054,296" fill="#FF8C00"/>
  <polygon points="1074,291 1083,296 1074,301 1065,296" fill="#FF8C00" opacity="0.8"/>
  <polygon points="1068.5,301 1077.5,306 1068.5,311 1059.5,306" fill="#FF8C00" opacity="0.65"/>
  <text x="1089" y="293" font-size="10" font-weight="700" fill="#B35A00">AI/BI Dashboard</text>
  <text x="1089" y="305" font-size="9" fill="#B35A00">Publicado + Embedded</text>
  <text x="1061" y="328" font-size="9" fill="#5A6E7F">• KPIs de negócio</text>
  <text x="1061" y="342" font-size="9" fill="#5A6E7F">• Cargas por tipo, UF</text>
  <text x="1061" y="356" font-size="9" fill="#5A6E7F">• Ticket médio · Tendência</text>
  <text x="1061" y="370" font-size="9" fill="#5A6E7F">• Data Quality</text>

  <!-- Notebooks / Jobs -->
  <rect x="829" y="415" width="440" height="115" rx="10" fill="#F8F0FF" stroke="#8E44AD" stroke-width="1.5"/>
  <rect x="829" y="415" width="440" height="28" rx="10" fill="#8E44AD" fill-opacity="0.14"/>
  <rect x="829" y="429" width="440" height="14" fill="#8E44AD" fill-opacity="0.14"/>
  <rect x="839" y="420" width="14" height="18" rx="1" fill="#8E44AD"/>
  <rect x="842" y="425" width="8" height="1.2" fill="#FFFFFF"/>
  <rect x="842" y="428" width="8" height="1.2" fill="#FFFFFF"/>
  <rect x="842" y="431" width="6" height="1.2" fill="#FFFFFF"/>
  <text x="858" y="428" font-size="10" font-weight="700" fill="#5A0080">Notebooks · MLflow · Jobs</text>
  <text x="858" y="440" font-size="9" fill="#5A0080">Databricks Runtime 14.3 LTS+</text>
  <text x="839" y="462" font-size="9" fill="#5A6E7F">01 · Criar tabelas sintéticas (Faker ~50k registros)</text>
  <text x="839" y="476" font-size="9" fill="#5A6E7F">02 · Incluir dados de baixa qualidade</text>
  <text x="839" y="490" font-size="9" fill="#5A6E7F">04 · Dashboard de negócios Databricks</text>
  <text x="839" y="504" font-size="9" fill="#5A6E7F">05 · Gerar dados sintéticos 5x · MLflow registro whisper-large-v3</text>

  <!-- LEGEND -->
  <rect x="15" y="555" width="1270" height="55" rx="8" fill="#FFFFFF" stroke="#D1D9E0" stroke-width="1"/>
  <text x="30" y="574" font-size="10" font-weight="700" fill="#1B3139">Legenda:</text>
  <path d="M 88 571 L 120 571" stroke="#FF3621" stroke-width="2" fill="none" marker-end="url(#arr1)"/>
  <text x="125" y="575" font-size="9" fill="#5A6E7F">Chamada de API / inferência IA</text>
  <path d="M 88 588 L 120 588" stroke="#5A6E7F" stroke-width="2" fill="none" marker-end="url(#arr2)"/>
  <text x="125" y="592" font-size="9" fill="#5A6E7F">REST / SDK</text>
  <rect x="280" y="567" width="10" height="10" rx="2" fill="#1B3139" opacity="0.3" stroke="#1B3139" stroke-width="1"/>
  <text x="295" y="576" font-size="9" fill="#5A6E7F">Databricks Apps</text>
  <rect x="395" y="567" width="10" height="10" rx="2" fill="#FF3621" opacity="0.2" stroke="#FF3621" stroke-width="1"/>
  <text x="410" y="576" font-size="9" fill="#5A6E7F">Model Serving</text>
  <rect x="500" y="567" width="10" height="10" rx="2" fill="#0066CC" opacity="0.2" stroke="#0066CC" stroke-width="1"/>
  <text x="515" y="576" font-size="9" fill="#5A6E7F">Unity Catalog / Lakebase</text>
  <rect x="645" y="567" width="10" height="10" rx="2" fill="#009688" opacity="0.2" stroke="#009688" stroke-width="1"/>
  <text x="660" y="576" font-size="9" fill="#5A6E7F">SQL Warehouse</text>
  <rect x="760" y="567" width="10" height="10" rx="2" fill="#FF8C00" opacity="0.2" stroke="#FF8C00" stroke-width="1"/>
  <text x="775" y="576" font-size="9" fill="#5A6E7F">AI/BI Dashboard</text>
  <rect x="875" y="567" width="10" height="10" rx="2" fill="#8E44AD" opacity="0.2" stroke="#8E44AD" stroke-width="1"/>
  <text x="890" y="576" font-size="9" fill="#5A6E7F">Notebooks / MLflow</text>
  <text x="30" y="600" font-size="9" fill="#8899A6">Stack: React 18 + Vite + Tailwind CSS | FastAPI + Python 3 | Databricks — Claude Sonnet 4.6 · Whisper large-v3 · Lakebase · Delta Lake · DBSQL · AI/BI · Unity Catalog · MLflow · Apps</text>
</svg>
