<?xml version="1.0" encoding="UTF-8"?>
<!-- Generator: Adobe Illustrator 27.0.1, SVG Export Plug-In . SVG Version: 6.00 Build 0)  -->
<svg xmlns="http://www.w3.org/2000/svg" xmlns:xlink="http://www.w3.org/1999/xlink" version="1.1" id="Camada_1" x="0px" y="0px" viewBox="0 0 640 180" style="enable-background:new 0 0 640 180;" xml:space="preserve">
<style type="text/css">
	.st0{fill:#FF5402;}
</style>
<path class="st0" d="M627.22,138.38c-0.05,0.27-0.15,0.55-0.15,0.82c-0.03,5.6-0.05,11.2-0.06,16.8c-0.01,3.8-0.02,7.61,0.02,11.41  c0.02,1.97-0.87,2.51-2.38,2.57c-0.86,0.04-1.72,0.01-2.58,0.01c-3.67-0.01-7.35-0.02-11.02-0.02c-19.23-0.01-38.47-0.03-57.7-0.03  c-9.25,0-18.5,0.03-27.76,0.05c-0.91,0-1.82,0.04-2.74,0.03c-0.47,0-0.94-0.04-1.4-0.12c-1.11-0.17-1.68-0.74-1.79-1.84  c-0.08-0.78-0.08-1.56-0.08-2.34c0-4.3,0-8.6,0.02-12.9c0.02-5.18,0.05-10.37,0.08-15.55c0.01-1.96,0.74-3.6,2.16-4.93  c5.57-5.18,11.14-10.37,16.72-15.54c11.59-10.73,23.19-21.43,34.77-32.18c1.14-1.06,2.11-2.3,3.16-3.46  c0.07-0.07,0.1-0.17,0.19-0.35c-0.35-0.06-0.65-0.12-0.95-0.17c-2.43-0.41-4.88-0.34-7.33-0.34c-9.96,0-19.91-0.01-29.87-0.01  c-5.06,0-10.11,0.03-15.17,0.03c-0.65,0-1.3-0.05-1.94-0.17c-1.01-0.19-1.62-0.85-1.75-1.85c-0.12-0.9-0.14-1.82-0.14-2.72  c0.02-6.64,0.07-13.29,0.09-19.93c0.01-2.53-0.04-5.05-0.05-7.58c0-0.44,0.02-0.89,0.1-1.32c0.16-0.91,0.7-1.51,1.63-1.67  c0.51-0.09,1.03-0.15,1.55-0.15c13.6,0,27.21,0,40.81,0.02c8.05,0.01,16.11,0.04,24.16,0.06c5.26,0.02,10.53,0.07,15.79,0.07  c3.29,0,6.47,0.59,9.58,1.61c1.11,0.37,2.21,0.78,3.31,1.19c2.89,1.08,5,3.04,6.43,5.75c1.11,2.1,1.7,4.36,2.03,6.69  c0.68,4.73,0.88,9.49,1,14.25c0.03,1.09,0.03,2.19,0.1,3.28c0.11,1.77-0.6,3.2-1.84,4.39c-2.01,1.93-4.05,3.83-6.09,5.74  c-15.06,14.07-30.12,28.14-45.17,42.22c-0.87,0.81-1.81,1.48-2.92,1.91c-0.38,0.15-0.74,0.35-1.23,0.58  c0.45,0.61,0.83,1.16,1.26,1.67c0.09,0.11,0.33,0.15,0.5,0.15c1.14,0.06,2.29,0.15,3.43,0.15c12.2,0.02,24.39,0.02,36.59,0.02  c4.25,0,8.5-0.03,12.74-0.03c0.62,0,1.25,0.04,1.86,0.18c1.12,0.25,1.7,1.02,1.79,2.17c0.03,0.41,0.13,0.81,0.2,1.22  C627.22,138.28,627.22,138.33,627.22,138.38z"></path>
<path class="st0" d="M56.09,169.93c-0.4,0.02-0.68,0.05-0.96,0.05c-8.26,0-16.52,0-24.79,0c-3.96,0-7.92,0-11.88,0  c-0.65,0-1.3,0.05-1.95,0.07c-0.23,0.01-0.47,0.01-0.7,0.01c-1.86-0.03-2.61-0.77-2.65-2.62c-0.02-0.99,0-1.98,0-2.97  c0-23.45,0-46.9,0-70.35c0-11.67,0-23.34-0.01-35.02c0-3.39-0.05-6.77-0.06-10.16c0-0.67,0.06-1.35,0.19-2.01  c0.2-1.06,0.88-1.72,1.95-1.85c0.8-0.1,1.61-0.11,2.41-0.11c2.94,0.01,5.89,0.08,8.83,0.07c3.28-0.01,6.57-0.09,9.84,0.22  c2.29,0.22,4.54,0.64,6.71,1.41c4.64,1.64,7.97,4.72,10.04,9.17c0.22,0.47,0.4,0.96,0.64,1.42c0.63,1.19,1.51,1.45,2.64,0.73  c0.5-0.32,0.95-0.73,1.39-1.13c3.15-2.86,6.47-5.5,10.09-7.75c5.46-3.37,11.35-5.56,17.7-6.48c7.27-1.06,14.4-0.5,21.29,2.16  c6.31,2.43,11.5,6.36,15.47,11.86c0.3,0.42,0.63,0.84,1,1.19c0.87,0.83,1.69,0.89,2.68,0.22c0.45-0.31,0.85-0.68,1.26-1.05  c5.88-5.21,12.5-9.17,19.95-11.72c3.91-1.34,7.92-2.2,12.01-2.75c3.32-0.45,6.65-0.59,9.98-0.43c16.16,0.79,31.1,11.31,35.46,28.57  c1.04,4.09,1.75,8.24,2.23,12.44c0.52,4.62,0.57,9.25,0.6,13.89c0.04,6.64,0.06,13.29,0.09,19.93c0.02,5.11,0.04,10.21,0.04,15.32  c-0.01,6.23-0.04,12.45-0.06,18.68c-0.02,5.29-0.03,10.58-0.05,15.87c0,0.62-0.06,1.25-0.14,1.86c-0.09,0.64-0.5,1.02-1.13,1.13  c-0.33,0.06-0.67,0.11-1.01,0.11c-2.94,0.02-5.89,0.04-8.83,0.04c-2.71,0-5.42-0.03-8.13-0.02c-5.16,0.01-10.32,0.03-15.48,0.05  c-1.51,0.01-3.02,0.04-4.53,0.05c-0.39,0-0.78-0.03-1.16-0.1c-1.4-0.24-2.03-0.91-2.18-2.34c-0.05-0.44-0.04-0.88-0.04-1.33  c0.01-6.64,0.03-13.29,0.03-19.93c0.01-10.08,0.01-20.17,0-30.25c-0.01-6.8-0.02-13.6-0.05-20.4c-0.01-3.09-0.51-6.12-1.46-9.06  c-1.21-3.76-3.85-6.04-7.61-7.05c-2.13-0.57-4.31-0.7-6.51-0.57c-5.82,0.36-10.86,2.68-15.5,6.04c-0.41,0.29-0.75,0.73-1,1.17  c-0.56,0.99-0.81,2.08-0.82,3.22c-0.02,1.56-0.04,3.13-0.05,4.69c-0.01,4.48-0.02,8.96-0.02,13.44c-0.02,12.3-0.04,24.59-0.04,36.89  c0,7.14,0.01,14.28,0.01,21.42c0,0.73,0,1.46-0.04,2.19c-0.07,1.29-0.56,1.81-1.85,1.83c-3.1,0.05-6.2,0.06-9.3,0.06  c-2.81,0.01-5.63-0.03-8.44-0.02c-5.39,0.01-10.79,0.03-16.18,0.05c-1.15,0-2.29,0.05-3.44,0.04c-0.49,0-0.99-0.06-1.47-0.15  c-0.84-0.16-1.42-0.66-1.6-1.51c-0.11-0.56-0.16-1.13-0.17-1.7c-0.01-3.13,0.01-6.25,0.01-9.38c0.01-13.26,0.02-26.52,0.01-39.79  c0-6.64,0-13.29-0.06-19.93c-0.03-3.18-0.36-6.34-1.21-9.43c-0.85-3.1-2.48-5.67-5.26-7.39c-2.21-1.37-4.65-1.9-7.23-1.87  c-2.92,0.04-5.69,0.74-8.28,2.02c-2.1,1.04-4.11,2.24-6.15,3.39c-0.75,0.42-1.46,0.91-2.2,1.35c-1.84,1.09-2.63,2.78-2.68,4.82  c-0.07,3.1-0.04,6.2-0.05,9.3c-0.02,5.94-0.06,11.88-0.06,17.82c-0.02,17.07-0.03,34.13-0.05,51.2  C56.09,169.15,56.09,169.49,56.09,169.93z"></path>
<path class="st0" d="M432.71,67.84c0-12.17,0.01-24.34,0-36.5c-0.01-6.44-0.05-12.87-0.07-19.31c0-0.81,0.01-1.62,0.08-2.42  c0.14-1.67,0.97-2.49,2.63-2.64c0.47-0.04,0.94-0.02,1.41-0.01c4.04,0.11,8.08,0.19,12.11,0.34c3.36,0.12,6.72,0.24,10.07,0.47  c4.8,0.33,8.68,2.4,11.43,6.41c1.1,1.6,1.9,3.35,2.47,5.2c0.84,2.77,1.35,5.61,1.73,8.48c0.48,3.7,0.67,7.42,0.8,11.14  c0.04,1.01,0.14,2.03,0.29,3.03c0.26,1.75,1.03,2.54,2.78,2.76c1.13,0.14,2.28,0.2,3.43,0.21c3.34,0.04,6.67,0.06,10.01,0.05  c2.97-0.01,5.94-0.08,8.91-0.1c0.52,0,1.04,0.05,1.55,0.14c0.93,0.17,1.46,0.77,1.61,1.68c0.09,0.54,0.13,1.09,0.13,1.63  c-0.02,2.79-0.09,5.57-0.1,8.36c-0.01,5.63,0,11.26,0.01,16.88c0,1.15,0.04,2.29,0.04,3.44c0,0.52-0.01,1.04-0.09,1.56  c-0.12,0.83-0.59,1.38-1.43,1.55c-0.38,0.08-0.77,0.14-1.16,0.14c-6.8,0-13.6-0.01-20.41-0.02c-1.01,0-2.03-0.05-3.04,0.03  c-1.45,0.11-2.19,0.83-2.46,2.27c-0.07,0.38-0.1,0.78-0.1,1.16c-0.02,5.97-0.04,11.93-0.03,17.9c0,4.45,0.01,8.91,0.07,13.36  c0.02,1.87,0.08,3.75,0.29,5.62c0.48,4.38,1.97,8.35,5.11,11.56c2.39,2.45,5.34,3.84,8.67,4.48c1.86,0.36,3.73,0.35,5.61,0.33  c2.19-0.02,4.38,0,6.57-0.06c1.87-0.05,2.37,0.83,2.37,2.33c-0.03,9.41-0.04,18.81-0.06,28.22c0,1.05-0.46,1.92-1.19,2.63  c-0.22,0.22-0.57,0.36-0.89,0.42c-2.33,0.42-4.66,0.85-7,1.2c-2.42,0.36-4.85,0.69-7.28,0.93c-4.08,0.4-8.16,0.52-12.26,0.23  c-5.01-0.36-9.91-1.29-14.64-2.99c-6.88-2.47-12.67-6.5-17.22-12.24c-1.64-2.07-3-4.32-4.02-6.76c-1.91-4.54-3.53-9.18-4.88-13.91  c-0.74-2.58-1.11-5.24-1.36-7.91c-0.43-4.6-0.46-9.21-0.47-13.82c-0.02-8.13-0.05-16.26-0.06-24.39c-0.01-7.69,0-15.37,0-23.06  C432.67,67.84,432.69,67.84,432.71,67.84z"></path>
<path class="st0" d="M339.15,172.72c-5.34-0.04-10.68-0.08-16.03-0.12c-0.48,0-0.96-0.06-1.42,0.25c-0.22,0.15-0.61,0.06-0.92,0.06  c-5.32-0.1-10.63-0.2-15.95-0.3c-3.41-0.06-6.83-0.09-10.24-0.21c-4.71-0.15-9.42-0.41-14.14-0.55c-3.22-0.1-6.39-0.49-9.46-1.49  c-2.25-0.73-4.47-1.57-6.69-2.38c-3.49-1.27-6.73-3.05-9.96-4.85c-1.66-0.93-3.33-1.83-5.02-2.71c-3.67-1.9-6.67-4.61-9.3-7.76  c-2.53-3.03-4.66-6.34-6.91-9.56c-1.45-2.08-2.78-4.21-3.91-6.48c-2.16-4.32-3.59-8.87-4.48-13.6c-1.18-6.25-1.41-12.56-1.29-18.9  c0.07-3.91,0.44-7.79,1.12-11.65c2.05-11.56,6.96-21.7,14.98-30.3c5.33-5.72,11.45-10.39,18.54-13.72  c4.98-2.34,10.18-3.97,15.63-4.77c2.6-0.38,5.22-0.63,7.83-0.94c2.53-0.29,5.07-0.59,7.61-0.86c1.84-0.2,3.68-0.4,5.52-0.52  c3.46-0.22,6.92-0.42,10.38-0.56c2.45-0.1,4.9-0.15,7.35-0.13c6.88,0.05,13.76,0.14,20.64,0.24c5.76,0.08,11.52,0.18,17.27,0.31  c8.64,0.19,17.12,1.4,25.29,4.34c13.02,4.69,23.42,12.78,31.15,24.25c4.02,5.96,6.64,12.53,8.21,19.54  c1.53,6.83,2.08,13.74,1.84,20.72c-0.17,4.79-0.63,9.56-1.51,14.28c-0.71,3.82-2.12,7.39-3.84,10.86c-1.78,3.6-3.94,6.98-5.95,10.45  c-3.81,6.57-9.23,11.48-15.51,15.58c-6.15,4.01-12.84,6.75-19.88,8.7c-4.33,1.2-8.74,1.91-13.22,2.21  c-5.07,0.34-10.15,0.46-15.23,0.53c-0.83,0.01-1.67,0-2.5,0C339.15,172.68,339.15,172.7,339.15,172.72z M320.8,59.28  c0,0.04,0,0.09,0,0.13c-7.27,0-14.54,0-21.81,0c-1.8,0-3.6,0-5.39-0.06c-4.28-0.15-8.55-0.01-12.79,0.56  c-4.75,0.63-9.32,1.95-13.71,3.86c-6.54,2.85-12.14,6.94-16.59,12.56c-6.1,7.71-9,16.57-9.43,26.31c-0.13,2.89-0.18,5.78-0.04,8.67  c0.19,3.86,0.65,7.67,1.59,11.42c2.07,8.2,6.35,14.96,13.17,20.01c2.57,1.9,5.25,3.67,7.94,5.42c7.16,4.65,15.1,6.77,23.58,6.98  c1.88,0.05,3.75,0.06,5.63,0.07c4.77,0.03,9.54,0.09,14.31,0.08c9.04-0.02,18.09-0.07,27.13-0.12c6.02-0.04,12.04-0.11,18.06-0.15  c3.99-0.02,7.9-0.57,11.71-1.7c8.7-2.58,16.42-6.97,23.14-13.06c3.54-3.21,6.27-7.04,8.14-11.44c1.94-4.53,3.06-9.28,3.64-14.17  c0.36-3.01,0.44-6.02,0.34-9.05c-0.1-3.21-0.43-6.39-1.01-9.54c-1.08-5.82-3.24-11.24-6.39-16.25  c-4.48-7.14-10.49-12.55-18.22-16.01c-5.78-2.59-11.87-3.85-18.15-4.24c-2.86-0.18-5.73-0.27-8.59-0.28  C338.31,59.25,329.55,59.28,320.8,59.28z"></path>
</svg>
